PathFileType	4	(X/Y/Z)	C:\Users\Biomechanik\SynologyDrive\AlexP\Athlete_03\Athlete_3_22_07_06\sq_85_EMG\marker_experimental.trc
DataRate	CameraRate	NumFrames	NumMarkers	Units	OrigDataRate	OrigDataStartFrame	OrigNumFrames
200.000000	200.000000	4	58	mm	200.000000	579	1544
Frame#	Time	BL			BR			GLAB			RFHD			LFHD			C7			T6			SPINMOL			SPINM2			SPINM3			T12			BELTOL			BELT2			BELT3			SACROL			SACR2			SACR3			LTHOL			LTH2			LTH3			LSHAOL			LSHA2			LSHA3			LHEE			LTOE			LM5			RTHOL			RTH2			RTH3			RSHAOL			RSHA2			RSHA3			RHEE			RTOE			RM5			STRN			XIPH			LACR			LUAOL			LUA2			LUA3			LLAOL			LLA2			LLA3			LWRU			RACR			RUAOL			RUA3			RLAOL			RLA2			RLA3			RWRU			USERMO0			USERMO1			USERMO2			USERMO3			USERMO4			USERMO5			
		X1	Y1	Z1	X2	Y2	Z2	X3	Y3	Z3	X4	Y4	Z4	X5	Y5	Z5	X6	Y6	Z6	X7	Y7	Z7	X8	Y8	Z8	X9	Y9	Z9	X10	Y10	Z10	X11	Y11	Z11	X12	Y12	Z12	X13	Y13	Z13	X14	Y14	Z14	X15	Y15	Z15	X16	Y16	Z16	X17	Y17	Z17	X18	Y18	Z18	X19	Y19	Z19	X20	Y20	Z20	X21	Y21	Z21	X22	Y22	Z22	X23	Y23	Z23	X24	Y24	Z24	X25	Y25	Z25	X26	Y26	Z26	X27	Y27	Z27	X28	Y28	Z28	X29	Y29	Z29	X30	Y30	Z30	X31	Y31	Z31	X32	Y32	Z32	X33	Y33	Z33	X34	Y34	Z34	X35	Y35	Z35	X36	Y36	Z36	X37	Y37	Z37	X38	Y38	Z38	X39	Y39	Z39	X40	Y40	Z40	X41	Y41	Z41	X42	Y42	Z42	X43	Y43	Z43	X44	Y44	Z44	X45	Y45	Z45	X46	Y46	Z46	X47	Y47	Z47	X48	Y48	Z48	X49	Y49	Z49	X50	Y50	Z50	X51	Y51	Z51	X52	Y52	Z52	X53	Y53	Z53	X54	Y54	Z54	X55	Y55	Z55	X56	Y56	Z56	X57	Y57	Z57	X58	Y58	Z58	

580	2.895	138.1793670654297	1254.333374023438	-2280.718994140625	155.8125152587891	1273.14990234375	-58.87065505981437	517.5311279296875	1427.890502929688	-1141.609130859375	454.2315673828125	1442.339721679688	-1068.141845703125	458.6865844726562	1444.809448242188	-1222.01025390625	256.7699890136719	1368.405029296875	-1150.261352539062	97.09529113769531	1245.36181640625	-1159.611206054688	74.724609375	1216.250122070312	-1165.29248046875	39.2322883605957	1161.455078125	-1119.07763671875	50.26545333862305	1159.5126953125	-1167.797729492188	32.05136489868164	1104.048461914062	-1167.412719726562	-3.786528825759888	1063.747314453125	-1167.153442382812	-15.86087608337402	1003.679321289063	-1115.879760742188	-19.69152641296387	1003.58154296875	-1165.876220703125	-23.06715202331543	927.7521972656251	-1193.692626953125	-15.75925922393799	938.0161132812501	-1143.96533203125	-46.04894638061523	879.9151000976564	-1154.087158203125	110.8060073852539	723.8438720703126	-1416.05078125	72.19111633300781	653.9714355468751	-1410.904541015625	118.2156219482422	663.6773071289064	-1429.202514648438	98.97991180419922	327.357879638672	-1520.889282226562	66.28340911865234	255.6887817382813	-1526.876831054688	112.8789596557617	269.2146606445314	-1538.148803710938	65.46225738525391	35.92684936523447	-1508.593994140625	270.4537048339844	49.09896087646494	-1551.068725585938	211.6813049316406	24.07623863220225	-1648.227172851562	73.95297241210938	696.7071533203125	-913.2989501953125	111.9034194946289	635.4501953125	-878.5017700195312	67.12403869628906	635.8497314453125	-901.5686645507812	36.23386764526367	318.2157287597657	-818.461181640625	80.78334045410156	261.3539428710938	-785.7125854492188	37.06521987915039	257.3237609863282	-809.8923950195312	34.17974090576172	34.53704071044927	-839.5088500976562	229.0510864257812	46.09871292114263	-763.4747314453125	162.5755157470703	35.96074676513676	-677.6441040039062	335.7607116699219	1218.080688476562	-1159.108276367188	301.2327270507812	1068.032836914062	-1155.232177734375	220.0285949707031	1314.720458984375	-1342.423095703125	83.97060394287109	1230.706298828125	-1366.52783203125	47.28061676025391	1191.84228515625	-1327.16748046875	47.74876022338867	1187.3818359375	-1377.762451171875	33.54091644287109	1152.29638671875	-1452.01904296875	78.38001251220703	1166.775390625	-1496.694091796875	76.05670166015625	1199.405639648438	-1458.606811523438	125.466911315918	1241.559326171875	-1510.3359375	225.9077758789062	1312.7216796875	-973.8267211914061	96.13800811767578	1211.360473632812	-937.6701660156249	38.70972061157227	1189.116943359375	-946.2207641601561	46.73794174194336	1174.102294921875	-865.8035888671874	94.60493469238281	1216.913696289062	-872.9956054687499	86.52677154541016	1200.988525390625	-824.8140869140624	121.0597534179688	1238.997924804688	-805.0939941406249	0.06045550107955933	0.01188770029693842	-0.05849409848451614	0.01038319990038872	0.0645081028342247	-0.05295990034937858	0.01907440088689327	0.02498859912157059	-0.02349640056490898	0.1085790023207664	0.2323980033397675	-0.7951800227165222	0.3947640061378479	2.952359914779663	-0.3596799969673155	2.739039897918701	0	0	
581	2.9	138.1902770996094	1254.701049804688	-2280.697021484375	155.8286437988281	1273.206787109375	-58.84362411499016	518.138427734375	1427.304565429688	-1141.695922851562	454.8792114257812	1441.77490234375	-1068.199340820312	459.2664489746094	1444.241088867188	-1222.070190429688	256.914794921875	1368.353515625	-1150.278686523438	96.98311614990234	1245.3876953125	-1159.60400390625	74.61171722412109	1216.255859375	-1165.287231445312	39.11180877685547	1161.473510742188	-1119.061279296875	50.1251335144043	1159.530029296875	-1167.785522460938	31.88734436035156	1104.071655273438	-1167.4140625	-3.921446800231934	1063.770141601562	-1167.152587890625	-15.99080181121826	1003.708557128906	-1115.874145507812	-19.81769180297852	1003.60546875	-1165.870727539062	-23.26079940795898	927.7767333984376	-1193.671264648438	-15.95284175872803	938.0483398437501	-1143.94482421875	-46.21994018554688	879.9345703125001	-1154.060546875	110.6260757446289	723.8372192382814	-1416.02734375	72.03115081787109	653.9547729492189	-1410.87890625	118.0373229980469	663.6752929687501	-1429.200317382812	98.88591003417969	327.3529052734376	-1520.864379882812	66.21219635009766	255.6739807128907	-1526.8505859375	112.7990570068359	269.2150268554689	-1538.133544921875	65.45249938964844	35.92089843750009	-1508.596435546875	270.4524841308594	49.10163116455087	-1551.06494140625	211.6845703125	24.08127021789561	-1648.221435546875	73.79872894287109	696.7064819335938	-913.2546997070312	111.7588119506836	635.4613037109375	-878.4602661132812	66.98019409179688	635.8492431640625	-901.5275268554688	36.17255020141602	318.2081604003907	-818.429443359375	80.733642578125	261.3557128906251	-785.68603515625	37.01471710205078	257.3219604492188	-809.8593139648438	34.17612075805664	34.53606414794927	-839.5040893554688	229.0487213134766	46.10095977783208	-763.4718627929688	162.5652008056641	35.9512100219727	-677.6471557617188	335.7217102050781	1218.076416015625	-1159.11767578125	301.2030944824219	1068.002685546875	-1155.244140625	220.0370788574219	1314.840209960938	-1342.380981445312	83.91127777099609	1230.928344726562	-1366.48681640625	47.21871948242188	1192.062255859375	-1327.133056640625	47.67144012451172	1187.62841796875	-1377.73486328125	33.44746780395508	1152.568359375	-1452.019165039062	78.29775238037109	1167.020629882812	-1496.689086914062	75.989990234375	1199.650512695312	-1458.608154296875	125.4545135498047	1241.770629882812	-1510.318237304688	225.9376068115234	1312.818237304688	-973.8511352539061	96.09913635253906	1211.524658203125	-937.6810913085936	38.66104507446289	1189.298217773438	-946.2285766601561	46.69623184204102	1174.276123046875	-865.8104858398436	94.58891296386719	1217.060546875	-872.9896240234374	86.49971008300781	1201.131713867188	-824.8149414062499	121.0604248046875	1239.1103515625	-805.0807495117186	0.05988140031695366	0.01196909975260496	-0.05915150046348572	0.01024900004267693	0.06366389989852905	-0.0531104989349842	0.01933580078184605	0.02477090060710907	-0.02343080006539822	0.1100160032510757	0.231661006808281	-0.7920420169830322	0.3921450078487396	2.943530082702637	-0.3572809994220732	2.727030038833618	0	0	
582	2.905	138.2004241943359	1255.075927734375	-2280.67236328125	155.8466796875	1273.275512695312	-58.81474304199211	518.7355346679688	1426.695190429688	-1141.766723632812	455.5154724121094	1441.197509765625	-1068.244262695312	459.8431396484375	1443.661743164062	-1222.117431640625	257.0602722167969	1368.303100585938	-1150.29638671875	96.86914825439453	1245.413696289062	-1159.593994140625	74.49657440185547	1216.262573242188	-1165.279052734375	38.98905563354492	1161.491821289062	-1119.04345703125	49.98235321044922	1159.54833984375	-1167.771728515625	31.7209415435791	1104.096557617188	-1167.41455078125	-4.058569431304932	1063.794555664062	-1167.152954101562	-16.12099838256836	1003.737182617188	-1115.87255859375	-19.9462776184082	1003.631164550781	-1165.869384765625	-23.45049858093262	927.8026123046876	-1193.656860351562	-16.14706230163574	938.0816650390626	-1143.932373046875	-46.39355087280273	879.9570922851564	-1154.044311523438	110.4494476318359	723.8352050781251	-1416.017456054688	71.87175750732422	653.9429321289064	-1410.86865234375	117.8657150268555	663.6754760742189	-1429.206176757812	98.79465484619141	327.3486633300782	-1520.848754882812	66.14302062988281	255.6599121093751	-1526.832641601562	112.7218017578125	269.2156066894532	-1538.125732421875	65.44334411621094	35.91522598266611	-1508.598510742188	270.4512634277344	49.10428237915048	-1551.061279296875	211.6880798339844	24.08601188659678	-1648.215454101562	73.64371490478516	696.7027587890625	-913.2238159179688	111.6135101318359	635.4686889648438	-878.4327392578125	66.83750152587891	635.8460083007812	-901.5	36.10894775390625	318.1980895996094	-818.409423828125	80.68205261230469	261.3576354980469	-785.667236328125	36.96311187744141	257.3177795410157	-809.835693359375	34.17295455932617	34.53489303588872	-839.5003051757812	229.0467529296875	46.10285949707036	-763.4697875976562	162.5551300048828	35.94205856323246	-677.6511840820312	335.6844787597656	1218.068115234375	-1159.125732421875	301.1734008789062	1067.97265625	-1155.257446289062	220.0469360351562	1314.961181640625	-1342.33740234375	83.85202789306641	1231.152954101562	-1366.4443359375	47.1555290222168	1192.285522460938	-1327.097412109375	47.59220123291016	1187.878662109375	-1377.706176757812	33.35119247436523	1152.845092773438	-1452.018920898438	78.21338653564453	1167.269897460938	-1496.68310546875	75.92418670654297	1199.898315429688	-1458.609375	125.4420547485352	1241.98486328125	-1510.298950195312	225.9687347412109	1312.91552734375	-973.8734130859374	96.05924987792969	1211.690673828125	-937.6910400390624	38.61213684082031	1189.482055664062	-946.2355346679686	46.6529426574707	1174.4541015625	-865.8157958984374	94.57137298583984	1217.211181640625	-872.9819335937499	86.47063446044922	1201.279296875	-824.8140869140624	121.0595855712891	1239.227416992188	-805.0656127929686	0.05949139967560768	0.0120301004499197	-0.05979179963469505	0.01012520026415586	0.06272230297327042	-0.05301659926772117	0.01966530084609985	0.02462700009346008	-0.02339450083673	0.1103790029883385	0.2307839989662171	-0.7888590097427368	0.3891830146312714	2.933429956436157	-0.3546150028705595	2.713020086288452	0	0	
583	2.91	138.2097778320312	1255.457153320313	-2280.645263671875	155.8664855957031	1273.355346679688	-58.78410339355461	519.32177734375	1426.064575195312	-1141.823364257812	456.1404113769531	1440.608764648438	-1068.277099609375	460.414794921875	1443.072509765625	-1222.152709960938	257.2061462402344	1368.253662109375	-1150.312744140625	96.75379180908203	1245.439575195312	-1159.581665039062	74.37924194335938	1216.270141601562	-1165.268310546875	38.86397552490234	1161.510009765625	-1119.024291992188	49.83723449707031	1159.567749023438	-1167.756713867188	31.55201721191406	1104.122924804688	-1167.414916992188	-4.198077201843262	1063.820678710938	-1167.155517578125	-16.25173568725586	1003.764831542969	-1115.8759765625	-20.07738876342773	1003.658447265625	-1165.873168945312	-23.63590240478516	927.8299560546876	-1193.650268554688	-16.34179496765137	938.1160278320314	-1143.9287109375	-46.56987380981445	879.9827880859376	-1154.03955078125	110.2763748168945	723.8379516601564	-1416.021728515625	71.71331024169922	653.9360351562501	-1410.874145507812	117.7012405395508	663.6781005859376	-1429.220092773438	98.70590972900391	327.3450927734376	-1520.8427734375	66.07565307617188	255.6465301513673	-1526.823120117188	112.6469650268555	269.2163391113282	-1538.125366210938	65.43498992919922	35.90980911254892	-1508.600341796875	270.4500427246094	49.10694885253915	-1551.057861328125	211.6917572021484	24.0904426574708	-1648.209350585938	73.48709869384766	696.69580078125	-913.2077026367188	111.466926574707	635.471923828125	-878.4205932617188	66.69550323486328	635.8399047851562	-901.487060546875	36.04273223876953	318.1852111816407	-818.4024047851562	80.62832641601562	261.3595886230469	-785.656982421875	36.91008377075195	257.3109436035157	-809.822509765625	34.17020034790039	34.53347015380864	-839.4973754882812	229.0451812744141	46.1044425964356	-763.468505859375	162.5455932617188	35.93358612060551	-677.6559448242188	335.6490783691406	1218.055419921875	-1159.131713867188	301.1425476074219	1067.942626953125	-1155.271240234375	220.0590057373047	1315.0830078125	-1342.29248046875	83.79441833496094	1231.379272460938	-1366.400268554688	47.09193801879883	1192.511352539062	-1327.061157226562	47.51210403442383	1188.131591796875	-1377.676879882812	33.25329208374023	1153.125610351562	-1452.0185546875	78.12825775146484	1167.522338867188	-1496.676513671875	75.86030578613281	1200.148193359375	-1458.6103515625	125.4301147460938	1242.201538085938	-1510.278198242188	226.0012664794922	1313.0126953125	-973.8931884765624	96.01840972900391	1211.857788085938	-937.6993408203124	38.56289291381836	1189.66796875	-946.2407226562499	46.60806655883789	1174.635864257812	-865.8187866210936	94.55219268798828	1217.365112304688	-872.9718627929686	86.43991851806641	1201.431030273438	-824.8110351562499	121.0574340820312	1239.348876953125	-805.0484008789061	0.05924300104379654	0.01207530032843352	-0.06029779836535454	0.0100108003243804	0.06169389933347702	-0.05268159881234168	0.02004880085587502	0.02453159913420677	-0.02337069995701313	0.1097709983587265	0.2296310067176819	-0.7858679890632629	0.3859409987926483	2.922139883041382	-0.3518109917640684	2.697119951248169	0	0	
